# xmcd
#
# Track frame offsets: 
#        150
#        27387
#        45874
#        75709
#        95957
#        111275
#        129758
#        149015
#        166005
#        187133
#        214319
#        226490
#        256879
#        271543
#        293178
#        310826
#        338293
#
# Disc length: 4774 seconds
#
# Revision: 0
# Processed by: cddbd v1.5.2PL0 Copyright (c) Steve Scherf et al.
# Submitted via: ExactAudioCopy v1.3
#
DISCID=ec12a411
DTITLE=Various Artist - Akella Presents - vol.198 - Blues Instrumenta
DTITLE=l  CD1
DYEAR=2019
DGENRE=Blues
TTITLE0=Jimmy Adler - Baby Doll Blues
TTITLE1=T. Nicks - Blue Seduction
TTITLE2=Nobby Reed Project - Last Winter
TTITLE3=Jay O'Rourke - The Last Night of the World
TTITLE4=Peer Gynt - Til Minne Om
TTITLE5=Bob Brozman - More Room At The Edge
TTITLE6=Guitar Shorty - Old Time Sare
TTITLE7=Big Gilson - She's A Woman
TTITLE8=Scott Van Zen - Seduced
TTITLE9=Nick Moss Band - Rump Rash
TTITLE10=Vidar Busk - Drive On
TTITLE11=Rosado - Too Slim And The Taildraggers
TTITLE12=Fast Eddie Clarke - Ethereal Blue
TTITLE13=Gregor Hilden - Farewell Blues
TTITLE14=Sidetrackers - San Ho Zay
TTITLE15=Anthony Geraci - Blues for David Maxwell
TTITLE16=Steve Johnson - Sleepwalk
EXTD=
EXTT0=
EXTT1=
EXTT2=
EXTT3=
EXTT4=
EXTT5=
EXTT6=
EXTT7=
EXTT8=
EXTT9=
EXTT10=
EXTT11=
EXTT12=
EXTT13=
EXTT14=
EXTT15=
EXTT16=
PLAYORDER=
